# xmcd
#
# Track frame offsets:
#	150
#	20565
#	35152
#	54502
#	67012
#	85515
#	102392
#	113087
#
# Disc length: 1666 seconds
#
# Revision: 0
# Processed by: cddbd v1.5.1PL0 Copyright (c) Steve Scherf et al.
# Submitted via: EasyCDDAExtractor 8.0.1.1
#
DISCID=66068008
DTITLE=Z.Z. Hill - Greatest hits
DYEAR=1990
DGENRE=Blues
TTITLE0=Faithful And True
TTITLE1=Put A Little Love In Your Heart
TTITLE2=Early In The Morning
TTITLE3=Touch'em With Love
TTITLE4=Just As I am
TTITLE5=Hold Back (One Man At A Time)
TTITLE6=I Think I'll Do It
TTITLE7=Reprise #69
EXTD=
EXTT0=
EXTT1=
EXTT2=
EXTT3=
EXTT4=
EXTT5=
EXTT6=
EXTT7=
PLAYORDER=
